Coordinates
version=1
nRows=9
nColumns=63
inDegrees=yes

Units are S.I. units (second, meters, Newtons, ...)
If the header above contains a line with 'inDegrees', this indicates whether rotational values are in degrees (yes) or radians (no).

endheader
time	pelvis_tilt	pelvis_list	pelvis_rotation	pelvis_tx	pelvis_ty	pelvis_tz	hip_flexion_r	hip_adduction_r	hip_rotation_r	knee_angle_r	knee_angle_r_beta	ankle_angle_r	subtalar_angle_r	mtp_angle_r	hip_flexion_l	hip_adduction_l	hip_rotation_l	knee_angle_l	knee_angle_l_beta	ankle_angle_l	subtalar_angle_l	mtp_angle_l	L5_S1_Flex_Ext	L5_S1_Lat_Bending	L5_S1_axial_rotation	L4_L5_Flex_Ext	L4_L5_Lat_Bending	L4_L5_axial_rotation	L3_L4_Flex_Ext	L3_L4_Lat_Bending	L3_L4_axial_rotation	L2_L3_Flex_Ext	L2_L3_Lat_Bending	L2_L3_axial_rotation	L1_L2_Flex_Ext	L1_L2_Lat_Bending	L1_L2_axial_rotation	L1_T12_Flex_Ext	L1_T12_Lat_Bending	L1_T12_axial_rotation	Abs_r3	Abs_r2	Abs_r1	Abs_t1	Abs_t2	neck_flexion	neck_bending	neck_rotation	arm_flex_r	arm_add_r	arm_rot_r	elbow_flex_r	pro_sup_r	wrist_flex_r	wrist_dev_r	arm_flex_l	arm_add_l	arm_rot_l	elbow_flex_l	pro_sup_l	wrist_flex_l	wrist_dev_l
      3.75510204	     -3.27744072	    -15.57206923	     86.15341298	      0.21579679	      0.78977385	      0.60968274	     33.48076861	      1.25361534	      9.60283197	     38.67507393	      0.67500738	     36.63045145	    -14.72593812	      0.00000000	     34.78046754	      0.33031328	     -5.08963912	     43.21105387	      0.75417516	     38.83419523	     -6.04281182	      0.00000000	      0.76458621	     -0.01855827	      1.54580183	      1.41991305	     -0.02468250	      1.64241445	      1.25613869	     -0.04512257	      1.64241445	      0.87384558	     -0.04512257	      1.35257661	      0.70999476	     -0.03784402	      1.25596399	      0.43688456	     -0.02874676	      1.15935138	      5.46136284	     -0.20993484	      8.59728606	      0.00000000	      0.00000000	     28.49742030	     -4.98309182	     -3.94391861	     74.56957500	     11.57810483	     -1.90737491	     90.97747473	     88.50442760	    -21.10417089	    -16.71511598	     55.46882119	     14.93629586	      8.72909434	    115.84705356	     87.63128882	    -57.67740631	    -22.56845648
      3.77551020	     -3.60394778	    -15.86387747	     85.65676639	      0.21807107	      0.78754396	      0.61054542	     34.27990573	      1.45612016	     10.35452425	     39.35647236	      0.68690002	     37.06089464	    -14.49493635	      0.00000000	     35.46908337	      0.11524948	     -5.77602960	     43.93539636	      0.76681732	     39.09487047	     -6.23006131	      0.00000000	      0.80070614	     -0.08610105	      1.67748510	      1.48699137	     -0.11451440	      1.78232792	      1.31548011	     -0.20934609	      1.78232792	      0.91512705	     -0.20934609	      1.46779947	      0.74353572	     -0.17557726	      1.36295665	      0.45752349	     -0.13337053	      1.25811383	      5.71936388	     -0.97399229	      9.32966891	      0.00000000	      0.00000000	     28.50010714	     -6.14927426	     -6.11976088	     73.74902626	     11.78472182	     -0.88435577	     96.20136283	     88.66761681	    -22.26412553	    -15.01448961	     55.98330809	     17.08691456	      4.03486457	    107.68978386	     85.48677597	    -49.33110318	    -22.52591923
      3.79591837	     -3.72727904	    -15.95225771	     85.92136351	      0.21918565	      0.78590387	      0.61062031	     34.58434158	      1.43375624	     10.55757941	     39.79890398	      0.69462191	     37.64253942	    -14.48578165	      0.00000000	     35.81986950	      0.06034054	     -6.06924943	     44.34149802	      0.77390514	     39.84060327	     -5.61442225	      0.00000000	      0.81858307	     -0.10329940	      1.36101435	      1.52019063	     -0.13738820	      1.44607775	      1.34485013	     -0.25116215	      1.44607775	      0.93555860	     -0.25116215	      1.19088756	      0.76013624	     -0.21064813	      1.10582416	      0.46773837	     -0.16001076	      1.02076077	      5.84705704	     -1.16854343	      7.56955354	      0.00000000	      0.00000000	     28.50616940	     -5.01688207	     -3.84028849	     71.89684704	     13.91473564	      0.45276005	     99.62402781	     88.79119515	    -20.35547080	    -13.49218287	     57.94276150	     17.74288245	     -1.62784089	    100.32743383	     82.79329038	    -40.44001723	    -21.48463786
      3.81632653	     -3.76357850	    -16.16780475	     86.13454249	      0.21997946	      0.78438126	      0.61008829	     34.84152747	      1.45191494	     10.70855527	     40.01945849	      0.69847132	     38.27808735	    -14.31041038	      0.00000000	     36.23041638	     -0.08014605	     -6.31784808	     44.67473905	      0.77972129	     40.79546732	     -4.82842487	      0.00000000	      0.86309152	     -0.09746683	      0.86285337	      1.60284727	     -0.12963089	      0.91678170	      1.41797306	     -0.23698086	      0.91678170	      0.98642730	     -0.23698086	      0.75499670	      0.80146679	     -0.19875437	      0.70106836	      0.49317050	     -0.15097613	      0.64714002	      6.16497643	     -1.10256433	      4.79893157	      0.00000000	      0.00000000	     28.51153273	     -2.62908501	      0.05904651	     69.20559269	     16.56325071	      2.70867214	    101.28122426	     88.81967515	    -18.57345688	    -11.02860232	     60.50361201	     16.57728697	     -5.74884907	     94.50503057	     79.94806258	    -34.93598192	    -20.38699031
      3.83673469	     -3.59892341	    -16.37976902	     86.50265967	      0.21960256	      0.78324837	      0.60914916	     34.90058252	      1.46866049	     10.59505448	     40.00877865	      0.69828492	     38.92268109	    -14.10750294	      0.00000000	     36.56939566	     -0.10403797	     -6.00107596	     44.90613901	      0.78375998	     41.65749669	     -4.54988864	      0.00000000	      0.89632441	     -0.06052907	      0.31647675	      1.66456406	     -0.08050366	      0.33625654	      1.47257137	     -0.14717038	      0.33625654	      1.02440917	     -0.14717038	      0.27691715	      0.83232685	     -0.12343088	      0.25713736	      0.51215977	     -0.09375953	      0.23735756	      6.40235562	     -0.68471694	      1.76014872	      0.00000000	      0.00000000	     28.51446456	     -0.51139159	      3.60503431	     66.25131032	     18.84024891	      4.75283425	    100.93356856	     88.81636621	    -13.77477757	     -7.38309164	     62.35302635	     14.62304292	     -8.92610834	     91.13571218	     80.38651764	    -27.54131686	    -20.02589926
      3.85714286	     -3.28445781	    -16.53702363	     86.73702353	      0.21848630	      0.78268196	      0.60775939	     34.65897777	      1.55865897	     10.39533246	     39.63935605	      0.69183728	     39.44370608	    -13.78956894	      0.00000000	     36.65629863	     -0.20863860	     -5.59314272	     44.90175460	      0.78368346	     42.35841606	     -4.40397670	      0.00000000	      0.91451645	      0.00478605	     -0.16055026	      1.69834849	      0.00636545	     -0.17058465	      1.50245907	      0.01163681	     -0.17058465	      1.04520085	      0.01163681	     -0.14048147	      0.84921997	      0.00975972	     -0.13044708	      0.52255470	      0.00741360	     -0.12041269	      6.53229952	      0.05414080	     -0.89293236	      0.00000000	      0.00000000	     28.51314176	      1.52893757	      7.20611416	     64.03343258	     20.33356070	      7.71461657	     97.93053584	     88.80376929	    -12.52593792	     -6.40989130	     62.80492434	     11.83833570	     -9.75162120	     91.89031644	     82.49773980	    -22.90832617	    -21.03579301
      3.87755102	     -3.17927104	    -16.61368096	     86.55891722	      0.21743262	      0.78270050	      0.60599566	     34.23634476	      1.62005628	     10.65331862	     39.11376318	      0.68266395	     39.74217491	    -13.52393968	      0.00000000	     36.33607901	     -0.22531736	     -5.49168604	     44.42869175	      0.77542695	     42.76713472	     -4.49088421	      0.00000000	      0.93065782	      0.02635186	     -0.31733993	      1.72832464	      0.03504797	     -0.33717368	      1.52897773	      0.06407191	     -0.33717368	      1.06364882	      0.06407191	     -0.27767244	      0.86420885	      0.05373671	     -0.25783870	      0.53177788	      0.04081903	     -0.23800495	      6.64759575	      0.29809748	     -1.76494951	      0.00000000	      0.00000000	     28.51048846	      1.32229806	      6.49996388	     62.90582137	     20.36964270	     10.01175385	     94.24045919	     88.88064128	    -12.13669196	     -5.74259786	     62.08228726	      9.32374670	     -7.63841743	     95.70812544	     84.09731451	    -21.58729622	    -22.65527078
      3.89795918	     -2.92035684	    -16.54918706	     86.59157981	      0.21581816	      0.78373625	      0.60393326	     33.43881029	      1.58890619	     10.43354214	     38.18503432	      0.66645457	     39.61596696	    -13.27716163	      0.00000000	     35.61733649	     -0.19520913	     -5.10630600	     43.53374827	      0.75980724	     42.77458699	     -4.49646335	      0.00000000	      0.92840900	      0.06990764	     -0.40759210	      1.72414836	      0.09297717	     -0.43306661	      1.52528315	      0.16997344	     -0.43306661	      1.06107865	      0.16997344	     -0.35664309	      0.86212060	      0.14255567	     -0.33116858	      0.53049290	      0.10828694	     -0.30569407	      6.63153267	      0.79080925	     -2.26690498	      0.00000000	      0.00000000	     28.50413329	      1.12708532	      5.98768409	     62.79769393	     20.17147699	     11.69618526	     90.18016458	     88.92327077	    -11.73709242	     -5.47363806	     60.64701800	      6.87632807	     -5.17040368	    101.48133349	     86.12913539	    -20.26152969	    -23.45722165
      3.91836735	     -2.11090808	    -16.17500643	     87.70159617	      0.21211714	      0.78618569	      0.60190768	     31.95630434	      1.39721047	      8.94584363	     36.67428251	      0.64008698	     39.18865583	    -13.05985142	      0.00000000	     34.52150086	      0.08146388	     -3.35652201	     42.37043664	      0.73950362	     42.35643078	     -4.80649923	      0.00000000	      0.87222664	      0.20449846	     -0.67710062	      1.61981210	      0.27198295	     -0.71941941	      1.43298115	      0.49721755	     -0.71941941	      0.99686783	      0.49721755	     -0.59246304	      0.80994966	      0.41701326	     -0.55014426	      0.49839030	      0.31676811	     -0.50782547	      6.23022770	      2.31332747	     -3.76583053	      0.00000000	      0.00000000	     28.49345665	      1.78875279	      8.31897470	     63.45994544	     20.36380653	     13.10134904	     85.55995248	     88.87928329	    -10.52904730	     -7.81289725	     59.00903239	      4.94828342	     -4.04834627	    107.26772131	     87.63183956	    -19.91460377	    -23.15019985
